<svg xmlns="http://www.w3.org/2000/svg" viewBox="0 0 512 512" fill="none">
  <rect width="512" height="512" rx="100" fill="#1F0819"/>
  <path d="M200 160h-60c-8.8 0-16 7.2-16 16v160c0 8.8 7.2 16 16 16h60c33.1 0 60-26.9 60-60V220c0-33.1-26.9-60-60-60zm20 132c0 11-9 20-20 20h-40V200h40c11 0 20 9 20 20v72z" fill="#F9A03F"/>
  <path d="M350 230c-20.9 0-38 17.1-38 38v68c0 8.8 7.2 16 16 16s16-7.2 16-16v-36h12c20.9 0 38-17.1 38-38s-17.1-32-38-32h-6zm0 52h-12v-24h12c8.8 0 16 7.2 16 16s-7.2 16-16 16h-12z" fill="#F9A03F"/>
</svg>
