<svg xmlns="http://www.w3.org/2000/svg" viewBox="0 0 512 512" fill="none">
  <rect width="512" height="512" rx="100" fill="#001E36"/>
  <path d="M160 180h60c33.1 0 60 26.9 60 60s-26.9 60-60 60h-20v40c0 8.8-7.2 16-16 16s-16-7.2-16-16V196c0-8.8 7.2-16 16-16zm60 88c16.5 0 30-13.5 30-30s-13.5-30-30-30h-30v60h30z" fill="#31A8FF"/>
  <path d="M330 240c-8.8 0-16 7.2-16 16s7.2 16 16 16h12c8.8 0 16 7.2 16 16 0 8.8-7.2 16-16 16h-12c-8.8 0-16 7.2-16 16s7.2 16 16 16h12c26.5 0 48-21.5 48-48s-21.5-48-48-48h-12z" fill="#31A8FF"/>
</svg>
